<svg width="81" height="76" viewBox="0 0 81 76" fill="none" xmlns="http://www.w3.org/2000/svg">
<circle cx="22.5" cy="29.5" r="22.5" fill="#7553FF"/>
<path d="M44.3095 56.6237L59.2826 66.11C61.1965 67.3226 63.5728 65.5192 63.0048 63.285L58.6788 46.2674C58.557 45.7935 58.5714 45.2947 58.7204 44.8286C58.8694 44.3624 59.147 43.9478 59.5212 43.6324L72.9481 32.457C74.7123 30.9886 73.8017 28.0607 71.535 27.9136L54.0004 26.7756C53.5281 26.7418 53.0752 26.5746 52.6942 26.2934C52.3133 26.0122 52.0201 25.6285 51.8487 25.1871L45.3091 8.71856C45.1313 8.25004 44.8152 7.84669 44.4028 7.56206C43.9904 7.27744 43.5011 7.125 43 7.125C42.4989 7.125 42.0097 7.27744 41.5972 7.56206C41.1848 7.84669 40.8687 8.25004 40.691 8.71856L34.1513 25.1871C33.98 25.6285 33.6867 26.0122 33.3058 26.2934C32.9249 26.5746 32.4719 26.7418 31.9996 26.7756L14.465 27.9136C12.1983 28.0607 11.2877 30.9886 13.052 32.457L26.4788 43.6324C26.853 43.9478 27.1306 44.3624 27.2796 44.8286C27.4286 45.2947 27.443 45.7935 27.3212 46.2674L23.3093 62.0494C22.6278 64.7303 25.4793 66.8945 27.776 65.4394L41.6905 56.6237C42.0818 56.3746 42.5361 56.2423 43 56.2423C43.4639 56.2423 43.9182 56.3746 44.3095 56.6237V56.6237Z" stroke="black" stroke-width="2" stroke-linecap="round" stroke-linejoin="round"/>
</svg>
