<svg width="67" height="78" viewBox="0 0 67 78" fill="none" xmlns="http://www.w3.org/2000/svg">
<circle cx="41.5" cy="22.5" r="22.5" fill="#FFBA53"/>
<path d="M42.3984 53.3984C47.3129 53.3984 51.2969 49.4145 51.2969 44.5C51.2969 39.5855 47.3129 35.6016 42.3984 35.6016C37.484 35.6016 33.5 39.5855 33.5 44.5C33.5 49.4145 37.484 53.3984 42.3984 53.3984Z" stroke="black" stroke-width="2" stroke-linecap="round" stroke-linejoin="round"/>
<path d="M33.5 35.6016V17.8049H24.6016C22.2416 17.8049 19.9782 18.7424 18.3094 20.4112C16.6406 22.08 15.7031 24.3434 15.7031 26.7034C15.7031 29.0634 16.6406 31.3267 18.3094 32.9955C19.9782 34.6643 22.2416 35.6018 24.6016 35.6018L33.5 35.6016Z" stroke="black" stroke-width="2" stroke-linecap="round" stroke-linejoin="round"/>
<path d="M33.5 53.3982V35.6016H24.6016C22.2416 35.6016 19.9782 36.5391 18.3094 38.2079C16.6406 39.8766 15.7031 42.14 15.7031 44.5C15.7031 46.86 16.6406 49.1234 18.3094 50.7921C19.9782 52.4609 22.2416 53.3984 24.6016 53.3984L33.5 53.3982Z" stroke="black" stroke-width="2" stroke-linecap="round" stroke-linejoin="round"/>
<path d="M33.5 35.6016V17.8049H42.3984C44.7584 17.8049 47.0218 18.7424 48.6906 20.4112C50.3594 22.08 51.2969 24.3434 51.2969 26.7034C51.2969 29.0634 50.3594 31.3267 48.6906 32.9955C47.0218 34.6643 44.7584 35.6018 42.3984 35.6018L33.5 35.6016Z" stroke="black" stroke-width="2" stroke-linecap="round" stroke-linejoin="round"/>
<path d="M33.5 53.3982V62.2967C33.5 64.0567 32.9782 65.7771 32.0004 67.2405C31.0226 68.7038 29.6329 69.8444 28.0069 70.5179C26.381 71.1914 24.5918 71.3677 22.8656 71.0243C21.1395 70.681 19.5539 69.8335 18.3095 68.5891C17.065 67.3446 16.2175 65.759 15.8741 64.0329C15.5308 62.3068 15.707 60.5176 16.3805 58.8916C17.054 57.2656 18.1945 55.8759 19.6578 54.8981C21.1212 53.9203 22.8416 53.3984 24.6016 53.3984L33.5 53.3982Z" stroke="black" stroke-width="2" stroke-linecap="round" stroke-linejoin="round"/>
</svg>
