<svg width="83" height="78" viewBox="0 0 83 78" fill="none" xmlns="http://www.w3.org/2000/svg">
<circle cx="60.5" cy="22.5" r="22.5" fill="#FF5353"/>
<path d="M38 40V11.5" stroke="black" stroke-width="2" stroke-linecap="round" stroke-linejoin="round"/>
<path d="M62.6817 25.75L13.3183 54.25" stroke="black" stroke-width="2" stroke-linecap="round" stroke-linejoin="round"/>
<path d="M9.97518 45.2103C8.74123 38.5324 9.92845 31.6334 13.3236 25.7521C16.7188 19.8709 22.0996 15.3927 28.4995 13.1218V34.5153L9.97518 45.2103Z" stroke="black" stroke-width="2" stroke-linecap="round" stroke-linejoin="round"/>
<path d="M38 11.5C42.9933 11.5009 47.8986 12.8137 52.2249 15.3068C56.5512 17.8 60.1466 21.386 62.6509 25.7058C65.1553 30.0256 66.4808 34.9276 66.4946 39.9208C66.5085 44.9141 65.2103 49.8233 62.73 54.157C60.2496 58.4906 56.6743 62.0966 52.3619 64.6137C48.0495 67.1309 43.1515 68.4709 38.1583 68.4995C33.1652 68.5282 28.2521 67.2445 23.9111 64.777C19.5701 62.3096 15.9536 58.7449 13.4237 54.44" stroke="black" stroke-width="2" stroke-linecap="round" stroke-linejoin="round"/>
</svg>
