<svg width="90" height="76" viewBox="0 0 90 76" fill="none" xmlns="http://www.w3.org/2000/svg">
<circle cx="67.5" cy="29.5" r="22.5" fill="#53C1FF"/>
<path d="M13.3975 58.1925C13.4716 58.5047 13.608 58.7987 13.7986 59.0568C13.9893 59.3149 14.2301 59.5317 14.5067 59.6943C14.7833 59.8569 15.09 59.9618 15.4082 60.0028C15.7264 60.0438 16.0497 60.02 16.3584 59.9328C30.5162 56.0238 45.4683 56.0224 59.6268 59.9287C59.9355 60.0158 60.2586 60.0396 60.5767 59.9986C60.8948 59.9576 61.2013 59.8527 61.4778 59.6902C61.7544 59.5277 61.9952 59.311 62.1858 59.0531C62.3764 58.7951 62.5129 58.5013 62.587 58.1892L70.154 26.0326C70.2553 25.6022 70.2344 25.1519 70.0936 24.7327C69.9529 24.3135 69.6978 23.9418 69.3573 23.6597C69.0167 23.3776 68.6042 23.1961 68.166 23.1358C67.7279 23.0755 67.2817 23.1387 66.8775 23.3183L51.8605 29.9926C51.3182 30.2336 50.7054 30.2629 50.1426 30.0746C49.5799 29.8864 49.108 29.4944 48.8198 28.9757L40.0761 13.237C39.8704 12.8668 39.5695 12.5583 39.2044 12.3435C38.8394 12.1287 38.4235 12.0154 38 12.0154C37.5764 12.0154 37.1606 12.1287 36.7956 12.3435C36.4305 12.5583 36.1296 12.8668 35.9239 13.237L27.1802 28.9757C26.892 29.4944 26.4201 29.8864 25.8573 30.0746C25.2946 30.2628 24.6817 30.2336 24.1395 29.9926L9.12016 23.3173C8.71611 23.1377 8.26995 23.0745 7.83192 23.1348C7.39388 23.195 6.98137 23.3764 6.64081 23.6584C6.30026 23.9404 6.04519 24.3119 5.90433 24.731C5.76346 25.1501 5.7424 25.6002 5.8435 26.0307L13.3975 58.1925Z" stroke="black" stroke-width="2" stroke-linecap="round" stroke-linejoin="round"/>
<path d="M28.5 47.9984C34.8159 47.3339 41.1841 47.3339 47.5 47.9984" stroke="black" stroke-width="2" stroke-linecap="round" stroke-linejoin="round"/>
</svg>
